# xmcd
#
# Track frame offsets: 
#        150
#        27257
#        52815
#        71395
#        90342
#        142095
#        161715
#        181527
#        203252
#        219015
#        241215
#        261767
#        297170
#        331827
#
# Disc length: 4643 seconds
#
# Revision: 2
# Processed by: cddbd v1.5.2PL0 Copyright (c) Steve Scherf et al.
# Submitted via: ExactAudioCopy v1.0b4
#
DISCID=b012210e
DTITLE=Climax Blues Band - Blues From The Attic
DYEAR=1996
DGENRE=Blues Rock
TTITLE0=Fool For The Bright Lights
TTITLE1=Chasin Change
TTITLE2=Don't Start Me Talking
TTITLE3=Take Me Back To Georgia
TTITLE4=So Many Roads
TTITLE5=The Seventh Son
TTITLE6=The Last Chance Saloon
TTITLE7=The Movie Queen
TTITLE8=Towards The Sun
TTITLE9=Couldn't Get It Right
TTITLE10=Evil
TTITLE11=Going To New York Money
TTITLE12=Let's Work Together
TTITLE13=Let The Good Times Roll
EXTD=
EXTT0=
EXTT1=
EXTT2=
EXTT3=
EXTT4=
EXTT5=
EXTT6=
EXTT7=
EXTT8=
EXTT9=
EXTT10=
EXTT11=
EXTT12=
EXTT13=
PLAYORDER=
